# xmcd CD database file
#
# Track frame offsets:
#	150
#	21881
#	34730
#	55685
#	77516
#	102522
#	124312
#	144335
#
# Disc length: 2231 seconds
#
# Revision: 0
# Processed by: cddbd v1.5.1PL2 Copyright (c) Steve Scherf et al.
# Submitted via: CDex 1.51
#
DISCID=6208b508
DTITLE=Kiers en de Vries - Live in Burgerveen!
DYEAR=2001
DGENRE=Jazz
TTITLE0=Horny Horns
TTITLE1=Up Up!
TTITLE2=Gator's Groove
TTITLE3=Funky Dynamite
TTITLE4=Lucille
TTITLE5=Red Libanon
TTITLE6=Dig That Cat
TTITLE7=Funky Stuff Blues
EXTD=YEAR: 2001
EXTT0=
EXTT1=
EXTT2=
EXTT3=
EXTT4=
EXTT5=
EXTT6=
EXTT7=
PLAYORDER=
